{"title":"Anger Management S02E24 720p HDTV ReLaX","uid":8574177,"size":354855082,"categoryP":"video","categoryS":"hd___tv_shows","magnet":"?xt=urn:btih:b2f70f8e902c3886a427eda6220827322a3e5158&amp;dn=Anger+Management+S02E24+720p+HDTV+ReLaX&amp;tr=udp%3A%2F%2Ftracker.openbittorrent.com%3A80&amp;tr=udp%3A%2F%2Fopen.demonii.com%3A1337&amp;tr=udp%3A%2F%2Ftracker.coppersurfer.tk%3A6969&amp;tr=udp%3A%2F%2Fexodus.desync.com%3A6969","seeders":2,"leechers":0,"uploader":"dwhogr","files":1,"time":1371235335,"description":"Format : MPEG-4\nFormat profile : Base Media\nCodec ID : isom\nFile size : 338 MiB\nDuration : 21mn 27s\nOverall bit rate mode : Variable\nOverall bit rate : 2 205 Kbps\nWriting application : Lavf52.57.1\n\nVideo\nFormat : AVC\nFormat/Info : Advanced Video Codec\nDuration : 21mn 26s\nBit rate : 2 036 Kbps\nWidth : 1 280 pixels\nHeight : 720 pixels\nDisplay aspect ratio : 16:9\nFrame rate : 24.000 fps\nStream size : 312 MiB (92%)\n\nAudio\nID : 2\nFormat : AAC\nDuration : 21mn 27s\nBit rate : 165 Kbps\nChannel(s) : 2 channels\nSampling rate : 48.0 KHz\nStream size : 25.4 MiB (7%)","torrent":{"xt":"urn:btih:b2f70f8e902c3886a427eda6220827322a3e5158","amp;dn":"Anger+Management+S02E24+720p+HDTV+ReLaX","amp;tr":["udp%3A%2F%2Ftracker.openbittorrent.com%3A80","udp%3A%2F%2Fopen.demonii.com%3A1337","udp%3A%2F%2Ftracker.coppersurfer.tk%3A6969","udp%3A%2F%2Fexodus.desync.com%3A6969"],"infoHash":"b2f70f8e902c3886a427eda6220827322a3e5158","infoHashBuffer":{"type":"Buffer","data":[178,247,15,142,144,44,56,134,164,39,237,166,34,8,39,50,42,62,81,88]},"announce":[],"urlList":[]}}